<?xml version="1.0" encoding="UTF-8" standalone="no"?>
<svg width="24px" height="31px" viewBox="0 0 24 31" version="1.1" xmlns="http://www.w3.org/2000/svg" xmlns:xlink="http://www.w3.org/1999/xlink">
    <!-- Generator: Sketch 3.7.2 (28276) - http://www.bohemiancoding.com/sketch -->
    <title>Fill 1</title>
    <desc>Created with Sketch.</desc>
    <defs></defs>
    <g id="Welcome" stroke="none" stroke-width="1" fill="none" fill-rule="evenodd">
        <g id="VP--Blog--Post" transform="translate(-1025.000000, -306.000000)" fill="#FFFFFF">
            <g id="Group-10" transform="translate(922.000000, 294.000000)">
                <g id="Group-13">
                    <path d="M116.840666,29.0984687 L116.840666,29.0984687 C116.840666,28.6625534 116.800917,28.3224127 116.702962,28.0597367 C116.504924,28.3846192 116.323212,28.7998773 116.111451,29.3005813 L110.714734,42.250811 L105.163277,29.1383748 C104.633519,27.839549 104.367102,27.2102065 103.349229,27.2102065 L103.151427,26.9261691 L109.10038,26.9261691 L109.10038,27.2102065 L108.770079,27.2102065 C107.77492,27.2102065 107.308809,27.4745257 107.308809,28.1850888 C107.308809,28.4691262 107.398245,28.7930698 107.575226,29.2001119 L111.356169,38.2935356 L115.071573,29.3825062 C115.272687,28.9151354 115.337753,28.4895488 115.337753,28.2252296 C115.337753,27.5146665 114.939074,27.189784 114.033115,27.189784 L113.701158,27.2102065 L113.701158,26.9261691 L114.584877,26.9261691 L118.12472,26.9261691 L119.096219,26.9261691 L119.472894,26.9261691 C121.573707,26.9261691 123.298319,26.9465916 124.715108,27.5754646 C126.085286,28.1850888 126.94842,29.5240554 126.94842,31.0667778 C126.94842,33.442129 125.024351,35.0855556 122.015685,35.0855556 C120.999468,35.0855556 120.04879,34.8827388 119.185656,34.4972929 L119.185656,39.7951782 C119.185656,41.2972903 119.627397,41.6630178 121.441445,41.6827361 L121.441445,41.9667736 L114.584877,41.9667736 L114.584877,41.6827361 C116.353734,41.6418911 116.840666,41.276633 116.840666,39.7951782 L116.840666,29.0984687 Z M119.185656,33.7672462 L119.185656,33.7672462 C119.782373,34.1928329 120.46829,34.3956497 121.221403,34.3956497 C123.210539,34.3956497 124.470696,33.1982324 124.470696,31.0874351 C124.470696,28.9151354 122.968256,27.5146665 120.842835,27.5146665 C120.179396,27.5146665 119.605156,27.5754646 119.185656,27.6972955 L119.185656,33.7672462 Z M107.202336,23.9095036 L106.946094,23.9810998 L106.552383,24.123588 L106.364992,24.4186583 L106.323587,24.7224141 L106.502696,25.0524609 L106.868724,25.1418975 L107.116212,25.1240571 L107.535713,25.0080947 L108.056716,24.8921323 L108.97143,24.6421324 L109.875733,24.4724142 L111.072243,24.2754659 L112.19162,24.1773439 L113.575758,24.0886115 L114.720688,24.0613815 L116.061764,24.0970622 L116.830256,24.1414284 L118.147198,24.2846208 L119.428176,24.4904893 L120.676266,24.8026957 L121.589323,25.0703013 L122.222004,25.303165 L122.835757,25.5087987 L123.289801,25.4634936 L123.545808,25.0975313 L123.519781,24.6686582 L123.315591,24.4273438 L122.955952,24.301757 L122.153152,24.0433063 L121.018396,23.6766398 L120.198324,23.4719451 L119.180214,23.248471 L118.274254,23.0965931 L117.56586,23.0165462 L116.73727,22.9355603 L115.762695,22.8649031 L114.806576,22.8374383 L113.728605,22.8649031 L112.568058,22.9355603 L111.619037,23.0336823 L110.816237,23.141194 L110.088914,23.2569217 L109.141549,23.4362643 L108.295687,23.6322736 L107.518677,23.8106773 L107.202336,23.9095036 Z M107.530507,24.0766397 L107.530507,24.0766397 L107.453137,24.4160762 L107.394696,24.7001136 L107.632011,24.704339 L107.712693,24.3639635 L107.779652,24.123588 L107.530507,24.0766397 Z M108.768423,23.8292219 L108.768423,23.8292219 L108.66692,24.1125551 L108.60351,24.3836818 L108.86827,24.2369682 L108.962676,23.9667806 L108.945403,23.7125553 L108.768423,23.8292219 Z M109.932518,23.6400201 L109.932518,23.6400201 L109.870528,23.9019919 L109.841189,24.1491749 L110.076847,24.139081 L110.123222,23.8437759 L110.181663,23.6102079 L109.932518,23.6400201 Z M111.115305,23.4207714 L111.115305,23.4207714 L111.031074,23.6947149 L111.0209,23.927344 L111.270045,23.9710059 L111.337004,23.6911938 L111.402544,23.4430718 L111.163336,23.3015226 L111.115305,23.4207714 Z M112.330744,23.3226494 L112.330744,23.3226494 L112.279401,23.6400201 L112.274195,23.9095036 L112.514822,23.876405 L112.573264,23.5965929 L112.638567,23.3125555 L112.38256,23.1947151 L112.330744,23.3226494 Z M113.537901,23.2212409 L113.537901,23.2212409 L113.481116,23.4975319 L113.444915,23.7374379 L113.678681,23.6757009 L113.763149,23.3670155 C113.836969,23.1214757 113.833657,23.0780485 113.82159,23.0670156 L113.572209,23.084856 L113.537901,23.2212409 Z M114.799714,23.1649029 L114.799714,23.1649029 L114.682831,23.4796915 L114.627939,23.7203018 L114.868566,23.8036351 L114.990654,23.4754662 L115.078434,23.2059827 L114.799714,23.1649029 Z M115.98605,23.1282832 L115.98605,23.1282832 L115.915542,23.3961235 L115.87248,23.6947149 L116.111451,23.7203018 L116.192606,23.3996446 L116.287011,23.1437762 L116.022251,23.0634945 L115.98605,23.1282832 Z M117.272233,23.275701 L117.272233,23.275701 L117.165525,23.5376727 L117.129324,23.7883769 L117.385567,23.7926022 L117.495588,23.5198324 L117.557579,23.2649029 L117.304648,23.2059827 L117.272233,23.275701 Z M118.659447,23.4719451 L118.659447,23.4719451 L118.523872,23.7815694 L118.487672,24.0144331 L118.723094,24.0801608 L118.807325,23.7747619 L118.938167,23.5376727 L118.659447,23.4719451 Z M120.036723,23.7012877 L120.036723,23.7012877 L119.90943,23.9820388 L119.887189,24.2764049 L120.129235,24.301757 L120.198324,24.0656068 L120.311894,23.7883769 L120.064406,23.664668 L120.036723,23.7012877 Z M121.542949,24.1313345 L121.542949,24.1313345 L121.367388,24.3947147 L121.341598,24.6346207 L121.575364,24.554339 L121.687278,24.2907241 L121.542949,24.1313345 Z M122.921644,24.5585644 L122.921644,24.5585644 L122.766905,24.8390807 L122.718638,25.1010524 L122.954532,25.0454186 L123.064317,24.8017568 L123.1282,24.5585644 L122.921644,24.5585644 Z M122.663745,23.5247619 L122.663745,23.5247619 C122.663745,23.3219451 122.828659,23.1564522 123.035451,23.1564522 C123.241297,23.1564522 123.406684,23.3219451 123.406684,23.5247619 C123.406684,23.7294567 123.241297,23.8942454 123.035451,23.8942454 C122.828659,23.8942454 122.663745,23.7294567 122.663745,23.5247619 L122.663745,23.5247619 Z M120.999468,22.9534007 C120.999468,23.1564522 121.166274,23.3219451 121.370937,23.3219451 C121.575364,23.3219451 121.74217,23.1564522 121.74217,22.9534007 C121.74217,22.7496449 121.575364,22.584152 121.370937,22.584152 C121.166274,22.584152 120.999468,22.7496449 120.999468,22.9534007 L120.999468,22.9534007 Z M118.874521,22.4792224 C118.874521,22.6839172 119.039671,22.8484711 119.245517,22.8484711 C119.452309,22.8484711 119.617223,22.6839172 119.617223,22.4792224 C119.617223,22.2764056 119.452309,22.1109127 119.245517,22.1109127 C119.039671,22.1109127 118.874521,22.2764056 118.874521,22.4792224 L118.874521,22.4792224 Z M116.692552,22.2259362 C116.692552,22.4299267 116.859595,22.5954196 117.064258,22.5954196 C117.268684,22.5954196 117.437147,22.4299267 117.437147,22.2259362 C117.437147,22.0221804 117.268684,21.8573917 117.064258,21.8573917 C116.859595,21.8573917 116.692552,22.0221804 116.692552,22.2259362 L116.692552,22.2259362 Z M114.371696,22.1475324 C114.371696,22.350584 114.538502,22.5167811 114.743166,22.5167811 C114.949485,22.5167811 115.116291,22.350584 115.116291,22.1475324 C115.116291,21.9428377 114.949485,21.7782838 114.743166,21.7782838 C114.538502,21.7782838 114.371696,21.9428377 114.371696,22.1475324 L114.371696,22.1475324 Z M108.300892,22.7367341 C108.300892,22.9397857 108.467699,23.1052785 108.674018,23.1052785 C108.878681,23.1052785 109.045251,22.9397857 109.045251,22.7367341 C109.045251,22.5329783 108.878681,22.3677201 108.674018,22.3677201 C108.467699,22.3677201 108.300892,22.5329783 108.300892,22.7367341 L108.300892,22.7367341 Z M106.404505,23.1700673 C106.404505,23.3585648 106.559245,23.5111469 106.749948,23.5111469 C106.938995,23.5111469 107.092079,23.3585648 107.092079,23.1700673 C107.092079,22.9815697 106.938995,22.8280486 106.749948,22.8280486 C106.559245,22.8280486 106.404505,22.9815697 106.404505,23.1700673 L106.404505,23.1700673 Z M106.469808,21.3339177 L106.469808,21.3339177 L106.813595,21.2325093 L107.659693,21.0480023 L108.579376,20.8451855 L109.612629,20.6609133 L110.403598,20.5407255 L111.276906,20.4306317 L112.308503,20.3282843 L113.572209,20.2548102 L114.744822,20.2275801 L115.786592,20.2548102 L116.847528,20.3282843 L117.748519,20.4118524 L118.520323,20.4947162 L119.505309,20.6515236 L120.612619,20.8818052 L121.504855,21.0942465 L122.740878,21.4728848 L123.61466,21.7397861 L124.006477,21.8695983 L124.229832,22.1186592 L124.255858,22.5611473 L123.977375,22.9388467 L123.48571,22.985795 L122.815172,22.7735885 L122.127599,22.5329783 L121.133859,22.2566873 L119.775511,21.933448 L118.3812,21.7219457 L116.949031,21.573589 L116.111451,21.5282839 L114.653729,21.4907252 L113.405402,21.51819 L111.90107,21.6111477 L110.681846,21.7125561 L109.378863,21.9146687 L108.395297,22.0911944 L107.399901,22.3487061 L106.832523,22.4681896 L106.377059,22.5883773 L106.108749,22.6071567 L105.708178,22.5151379 L105.512032,22.1740582 L105.558407,21.8599739 L105.76307,21.5555139 L106.191324,21.4080961 L106.469808,21.3339177 Z M112.368601,22.1867343 L112.368601,22.1867343 C112.368601,21.9827438 112.535407,21.8181898 112.74007,21.8181898 C112.946389,21.8181898 113.113196,21.9827438 113.113196,22.1867343 C113.113196,22.3895511 112.946389,22.555983 112.74007,22.555983 C112.535407,22.555983 112.368601,22.3895511 112.368601,22.1867343 L112.368601,22.1867343 Z M110.226381,22.4034009 L110.226381,22.4034009 C110.226381,22.1996451 110.393188,22.0348564 110.599507,22.0348564 C110.805826,22.0348564 110.970976,22.1996451 110.970976,22.4034009 C110.970976,22.6080956 110.805826,22.7726496 110.599507,22.7726496 C110.393188,22.7726496 110.226381,22.6080956 110.226381,22.4034009 L110.226381,22.4034009 Z M107.914043,15.8064551 L107.914043,15.8064551 C107.914043,15.2015257 108.409257,14.7111503 109.017805,14.7111503 C109.626352,14.7111503 110.119909,15.2015257 110.119909,15.8064551 C110.119909,16.1987085 109.911934,16.5423703 109.599142,16.7360322 L110.10595,17.7644355 L110.422527,18.0785199 L110.775068,18.0869706 L111.156711,17.9674871 L111.416267,17.7184262 L111.63276,15.9470654 C111.036279,15.871948 110.577266,15.3670186 110.577266,14.7548123 C110.577266,14.0911975 111.118854,13.5522306 111.789156,13.5522306 C112.458037,13.5522306 112.999625,14.0911975 112.999625,14.7548123 C112.999625,15.2332159 112.717593,15.6468307 112.310396,15.8404926 L112.717593,17.1461259 L112.894809,17.4696 C113.118401,17.6818065 113.183704,17.7271116 113.221561,17.7372055 L113.565347,17.773121 L113.871514,17.6264074 L114.057012,17.3491775 L114.481717,15.3015257 C113.866072,15.1454225 113.41392,14.5926058 113.41392,13.9350943 C113.41392,13.1548129 114.052043,12.5226535 114.837571,12.5226535 C115.623099,12.5226535 116.260985,13.1548129 116.260985,13.9350943 C116.260985,14.5764086 115.827998,15.1179577 115.238143,15.2895539 L115.581929,17.0447175 L115.740454,17.4233559 L115.953399,17.6536375 L116.206093,17.7372055 L116.44672,17.7090365 L116.678829,17.5522291 L116.893666,17.2017597 L117.261586,15.9487086 C116.87663,15.7475349 116.615182,15.3458919 116.615182,14.8843897 C116.615182,14.220775 117.15677,13.6815733 117.825652,13.6815733 C118.49619,13.6815733 119.037778,14.220775 119.037778,14.8843897 C119.037778,15.4712439 118.614729,15.9597414 118.054449,16.0656099 L118.045931,17.3764075 L118.075033,17.6442478 L118.167782,17.9674871 L118.484123,18.1695997 L118.809218,18.2071584 L119.086045,18.1142007 L119.395288,17.7916656 L119.83206,16.7374406 C119.536541,16.5407271 119.342288,16.2064549 119.342288,15.8275818 C119.342288,15.2228872 119.837502,14.7334508 120.446049,14.7334508 C121.056253,14.7334508 121.54981,15.2228872 121.54981,15.8275818 C121.54981,16.387206 121.124868,16.8487082 120.58186,16.9142011 L120.603865,18.1799283 L120.678158,18.4834494 L120.984088,18.770069 L121.439552,18.8989421 L121.811022,18.8529328 L122.118845,18.5848578 L122.749869,17.7663135 C122.453877,17.5700694 122.261517,17.2357973 122.261517,16.8569242 C122.261517,16.2522296 122.754838,15.7627931 123.363622,15.7627931 C123.973826,15.7627931 124.467146,16.2522296 124.467146,16.8569242 C124.467146,17.4327455 124.0202,17.9043416 123.451166,17.9487078 L123.336176,18.3642006 L123.272529,18.6590361 L123.234672,18.9268764 L123.327422,19.2306322 L123.568285,19.4064537 L123.876108,19.5163128 L124.276443,19.4437776 L124.730251,19.1195993 L125.161818,18.521947 C125.012284,18.3435433 124.922847,18.1142007 124.922847,17.8651397 C124.922847,17.2963606 125.388958,16.8357974 125.961542,16.8357974 C126.533889,16.8357974 127,17.2963606 127,17.8651397 C127,18.4339189 126.533889,18.895421 125.961542,18.895421 C125.846315,18.895421 125.732745,18.8759375 125.627929,18.8407262 L125.196362,19.6649043 L124.991699,20.1252328 L124.684113,20.7904907 L124.498378,21.2144342 L124.377946,21.5001148 L124.07178,21.6477674 L123.707409,21.5095045 L123.07662,21.2604436 L122.388574,20.9926033 L121.682072,20.7801621 L121.076837,20.5867349 L120.492424,20.421242 L119.887189,20.2923688 L119.116804,20.1534018 L118.119752,20.0144347 L117.14494,19.9411953 L116.130379,19.8771108 L114.913284,19.8489418 L113.415813,19.8951859 L112.225928,19.9872046 L111.156711,20.0980027 L110.076847,20.2372045 L108.935229,20.4484721 L107.828156,20.6787537 L106.934027,20.8911949 L105.912841,21.1684248 L105.531197,21.1768755 L105.197348,20.5407255 L104.294701,18.6874399 L104.060936,18.7001159 C103.474866,18.7001159 103,18.2301631 103,17.6494121 C103,17.0686612 103.474866,16.5977693 104.060936,16.5977693 C104.645586,16.5977693 105.120215,17.0686612 105.120215,17.6494121 C105.120215,17.9181914 105.018711,18.1627922 104.851905,18.3496466 L105.15121,18.6874399 L105.596264,19.0181909 L105.921359,19.3048105 L106.229181,19.3782847 L106.55404,19.1855618 L106.693163,18.8433084 L106.609168,17.6254685 C106.05717,17.5888488 105.620397,17.1334499 105.620397,16.5764078 C105.620397,15.9965959 106.095026,15.5247651 106.67944,15.5247651 C107.265747,15.5247651 107.740376,15.9965959 107.740376,16.5764078 C107.740376,16.9491776 107.54423,17.2749991 107.252023,17.4618535 L107.790299,18.3461255 L108.049618,18.6132615 L108.311066,18.7052803 L108.562104,18.6404915 L108.785695,18.3548109 L108.785695,16.8768772 C108.286933,16.7710087 107.914043,16.3315723 107.914043,15.8064551 L107.914043,15.8064551 Z M103.971499,17.983919 L103.971499,17.983919 C103.85296,17.7627924 103.877094,17.6076281 103.844442,17.3773465 L103.574476,17.1930743 L103.460906,17.5205389 L103.553892,17.8890834 L103.808242,18.1362664 L103.971499,17.983919 Z M107.580431,19.8599746 L107.580431,19.8599746 L107.420486,20.1423689 L107.245162,20.3998805 L108.175255,20.4160777 L108.048198,20.1508196 L107.747237,19.9428385 L107.580431,19.8599746 Z M109.741578,19.3109138 L109.741578,19.3109138 L109.612629,19.6212423 L109.437305,19.9411953 L109.829359,20.074998 L110.28151,19.9982375 C110.489486,19.9707727 110.527343,19.9411953 110.527343,19.9411953 L110.315818,19.7022282 L110.049401,19.5163128 L109.781328,19.2714772 L109.741578,19.3109138 Z M112.526889,18.9050454 L112.526889,18.9050454 L112.334293,19.1606791 L112.184759,19.4430734 C112.031675,19.645186 112.004229,19.6782846 112.007542,19.6918996 L112.293124,19.7456554 L112.58888,19.7022282 L112.900015,19.6691296 L113.144191,19.6177212 C112.968867,19.4327448 112.884399,19.3721814 112.872332,19.3526978 L112.673111,19.0695994 L112.526889,18.9050454 Z M114.951141,18.4980033 L114.951141,18.4980033 L114.713827,18.6292239 L114.65018,18.881806 L114.564292,19.1538716 L114.340701,19.4489419 L114.588189,19.6416649 L115.002721,19.6348574 L115.334441,19.6348574 C115.557796,19.5444818 115.575068,19.5538715 115.561345,19.5207729 L115.361887,19.1872049 L115.12126,18.8111488 L114.999172,18.5712427 L114.951141,18.4980033 Z M117.227515,18.951759 L117.227515,18.951759 L116.986652,19.1700688 L116.732301,19.4156086 C116.561946,19.6144348 116.565495,19.6374395 116.582767,19.6552799 L116.881836,19.7022282 L117.14494,19.7022282 L117.457732,19.7353268 C117.647015,19.7329794 117.681323,19.7329794 117.69126,19.7193644 L117.607266,19.4489419 L117.414669,19.1172519 L117.227515,18.951759 Z M122.232415,19.9674863 L122.232415,19.9674863 L121.991551,20.1944816 L121.661251,20.3862655 C121.726554,20.613026 121.77837,20.613026 121.807709,20.6174861 C121.952038,20.6369696 121.991551,20.6285189 122.058747,20.6566879 L122.385498,20.7726503 L122.622576,20.8494109 L122.625889,20.5653734 L122.509006,20.2820402 L122.433292,19.9991765 L122.232415,19.9674863 Z M124.315956,20.8322747 L124.315956,20.8322747 L124.025642,21.0132606 L123.769163,21.156453 L124.053088,21.3832135 L124.290403,21.056453 L124.396875,20.8160776 L124.315956,20.8322747 Z M105.58609,20.3998805 L105.58609,20.3998805 L105.58609,20.7325095 L105.912841,20.9414296 L105.861024,20.7069227 L105.58609,20.3998805 Z M119.644906,19.3048105 L119.644906,19.3048105 C119.582915,19.3900218 119.073742,19.8958901 119.173589,20.0017586 C119.443555,20.0902562 119.80627,20.0996459 120.091615,20.1465942 C120.21536,20.1210074 119.995554,19.9172516 119.983487,19.8968291 C119.885296,19.7177212 119.902805,19.4745288 119.801065,19.2921345 L119.644906,19.3048105 Z M125.856489,18.1271115 L125.856489,18.1271115 C125.736058,17.9052806 125.760428,17.7498816 125.730852,17.5196 L125.459467,17.3355625 L125.345896,17.6630271 L125.440302,18.0315716 L125.691339,18.2794588 L125.856489,18.1271115 Z M106.586691,16.9193655 L106.586691,16.9193655 C106.517839,16.7846237 106.442125,16.6294595 106.428402,16.4742952 C106.414679,16.3231216 106.445675,16.0714785 106.445675,16.0714785 L106.211909,15.993779 L106.043447,16.2602108 L106.034929,16.4970651 L106.122473,16.8041073 L106.32193,17.0599757 L106.586691,16.9193655 Z M108.928368,16.3137319 L108.928368,16.3137319 C108.873476,16.1611498 108.833726,15.9904926 108.835619,15.8259386 L108.840588,15.1153755 L108.586237,15.0933098 L108.388436,15.3618543 L108.325026,15.6588026 L108.366195,16.0674878 C108.467699,16.3017601 108.43836,16.2738258 108.484734,16.3402577 L108.747839,16.4886144 L108.928368,16.3137319 Z M111.619037,15.372183 L111.619037,15.372183 C111.619037,15.372183 111.550421,15.1862675 111.514221,15.0233568 C111.493636,14.7308686 111.591591,14.2395543 111.591591,14.2395543 L111.30104,14.0937797 L111.031074,14.4118547 L110.976182,14.719601 L111.036279,15.138615 C111.147957,15.3764083 111.115305,15.3482393 111.165229,15.4132628 L111.440164,15.5571594 L111.619037,15.372183 Z M114.760201,14.5721833 L114.760201,14.5721833 C114.688037,14.3095073 114.626283,14.0118548 114.638113,13.7320427 C114.646867,13.5146719 114.719032,13.181104 114.719032,13.181104 L114.445753,13.0181933 L114.201341,13.0454233 L113.928062,13.391902 L113.849036,13.7712446 L113.876482,14.0196013 L113.931611,14.2848594 C114.09132,14.5780518 114.046601,14.54331 114.117346,14.6240612 L114.371696,14.7982395 L114.760201,14.5721833 Z M117.659082,15.4590374 L117.659082,15.4590374 C117.659082,15.4590374 117.588337,15.2733567 117.554266,15.1111502 C117.533208,14.819601 117.629507,14.3273477 117.629507,14.3273477 L117.338956,14.1825121 L117.070883,14.5003523 L117.015754,14.8085681 L117.074432,15.2264084 C117.186346,15.4634975 117.155114,15.4362674 117.205038,15.5017604 L117.479972,15.6451875 L117.659082,15.4590374 Z M120.437295,16.4066896 L120.437295,16.4066896 C120.385715,16.2541075 120.345965,16.0834503 120.345965,15.9181921 L120.351407,15.207629 L120.097057,15.1862675 L119.899256,15.4531688 L119.835609,15.7517603 L119.878671,16.1602108 C119.978045,16.3949525 119.949179,16.3665488 119.995554,16.4322764 L120.256765,16.5806332 L120.437295,16.4066896 Z M123.267324,17.2512902 C123.198472,17.1163137 123.122758,16.9611495 123.107143,16.8069242 C123.095312,16.6541073 123.126307,16.4043422 123.126307,16.4043422 L122.892305,16.3249995 L122.724079,16.5919008 L122.715325,16.8296941 L122.803105,17.1367363 L123.002327,17.3916657 L123.267324,17.2512902 Z" id="Fill-1"></path>
                </g>
            </g>
        </g>
    </g>
</svg>