<?xml version="1.0" encoding="UTF-8" standalone="no"?>
<svg width="25px" height="31px" viewBox="0 0 25 31" version="1.1" xmlns="http://www.w3.org/2000/svg" xmlns:xlink="http://www.w3.org/1999/xlink">
    <!-- Generator: Sketch 3.7.2 (28276) - http://www.bohemiancoding.com/sketch -->
    <title>Fill 1</title>
    <desc>Created with Sketch.</desc>
    <defs></defs>
    <g id="Welcome" stroke="none" stroke-width="1" fill="none" fill-rule="evenodd">
        <g id="Home-VP" transform="translate(-689.000000, -2150.000000)" fill="#BC9C29">
            <g id="Page-1" transform="translate(573.000000, 2150.000000)">
                <path d="M130.11946,17.0333827 L130.11946,17.0333827 C130.11946,16.5853137 130.07887,16.2358937 129.97893,15.9657615 C129.777206,16.2998157 129.591472,16.7266798 129.375603,17.2411294 L123.870009,30.5489014 L118.206665,17.0745633 C117.666377,15.7395758 117.394541,15.0929797 116.356092,15.0929797 L116.154368,14.801028 L122.223313,14.801028 L122.223313,15.0929797 L121.886286,15.0929797 C120.8709,15.0929797 120.395495,15.3646484 120.395495,16.0948349 C120.395495,16.3864793 120.486825,16.7196115 120.667331,17.1378707 L124.524383,26.4821682 L128.314706,17.3253344 C128.519812,16.844997 128.586234,16.4076842 128.586234,16.1360154 C128.586234,15.4058289 128.179403,15.0720821 127.255346,15.0720821 L126.916782,15.0929797 L126.916782,14.801028 L127.818083,14.801028 L131.429437,14.801028 L132.420223,14.801028 L132.804606,14.801028 C134.947925,14.801028 136.707168,14.8222329 138.152448,15.4682144 C139.550372,16.0948349 140.430762,17.4706956 140.430762,19.0561468 C140.430762,21.4968628 138.46795,23.1858801 135.398729,23.1858801 C134.362125,23.1858801 133.39225,22.9772115 132.511552,22.5810792 L132.511552,28.0255169 C132.511552,29.5688657 132.962356,29.9450224 134.812929,29.9653053 L134.812929,30.2569497 L127.818083,30.2569497 L127.818083,29.9653053 C129.622838,29.9228955 130.11946,29.5479681 130.11946,28.0255169 L130.11946,17.0333827 Z M132.511552,21.830917 L132.511552,21.830917 C133.120415,22.2682299 133.819991,22.4768985 134.58845,22.4768985 C136.617684,22.4768985 137.90306,21.246399 137.90306,19.0770444 C137.90306,16.844997 136.370449,15.4058289 134.202222,15.4058289 C133.5254,15.4058289 132.939601,15.4682144 132.511552,15.5936 L132.511552,21.830917 Z M120.286946,11.7011158 L120.025258,11.7748721 L119.623655,11.9211552 L119.432693,12.2244776 L119.390565,12.5364049 L119.572916,12.8756835 L119.946536,12.9675715 L120.199306,12.9491324 L120.627048,12.8298932 L121.158419,12.7109613 L122.0917,12.4540438 L123.014219,12.2794875 L124.235019,12.0769652 L125.37679,11.9764724 L126.788552,11.8851991 L127.956768,11.8572332 L129.324864,11.8938039 L130.108698,11.9395943 L131.452193,12.0867994 L132.759095,12.2979265 L134.032171,12.6187661 L134.963915,12.8941226 L135.609063,13.1332156 L136.235454,13.3446501 L136.698558,13.2979378 L136.959631,12.9220885 L136.933185,12.4810878 L136.724696,12.2330825 L136.357841,12.1043165 L135.538952,11.8387941 L134.38119,11.4620228 L133.544773,11.2515103 L132.506324,11.021944 L131.58196,10.8658267 L130.859321,10.7834656 L130.013986,10.7001826 L129.019818,10.6276556 L128.044408,10.5993824 L126.944765,10.6276556 L125.760866,10.7001826 L124.792836,10.8009827 L123.973639,10.9113097 L123.231626,11.0305489 L122.265134,11.2146322 L121.402271,11.4162325 L120.60952,11.5993937 L120.286946,11.7011158 Z M120.62182,11.8729064 L120.62182,11.8729064 L120.542791,12.2217118 L120.483135,12.5136634 L120.72545,12.5179659 L120.807554,12.1682385 L120.876128,11.9211552 L120.62182,11.8729064 Z M121.884749,11.6187547 L121.884749,11.6187547 L121.781119,11.9097845 L121.716235,12.1885215 L121.986533,12.0376286 L122.082783,11.7598135 L122.065255,11.4985936 L121.884749,11.6187547 Z M123.07203,11.4242227 L123.07203,11.4242227 L123.008992,11.6934329 L122.978856,11.9475845 L123.219326,11.9368284 L123.266682,11.6338133 L123.326338,11.393491 L123.07203,11.4242227 Z M124.278685,11.198959 L124.278685,11.198959 L124.192891,11.4804618 L124.182436,11.7195549 L124.436743,11.7644233 L124.50501,11.476774 L124.571739,11.2217005 L124.327886,11.0763393 L124.278685,11.198959 Z M125.518858,11.0981588 L125.518858,11.0981588 L125.466275,11.4242227 L125.461047,11.7011158 L125.706437,11.6670036 L125.766093,11.3796617 L125.832822,11.08771 L125.571442,10.9666269 L125.518858,11.0981588 Z M126.750114,10.9939781 L126.750114,10.9939781 L126.692302,11.2776322 L126.655402,11.5241009 L126.893719,11.4611008 L126.979821,11.1436418 C127.05516,10.8913341 127.051777,10.846773 127.039477,10.8354023 L126.785169,10.8538413 L126.750114,10.9939781 Z M128.037335,10.9362024 L128.037335,10.9362024 L127.91833,11.2595005 L127.862056,11.5065838 L128.107446,11.5923254 L128.231987,11.2551981 L128.321778,10.9779976 L128.037335,10.9362024 Z M129.24768,10.8984024 L129.24768,10.8984024 L129.175723,11.1734516 L129.13175,11.4804618 L129.375603,11.5065838 L129.458322,11.1771394 L129.554571,10.9143829 L129.284581,10.8317145 L129.24768,10.8984024 Z M130.559809,11.0499099 L130.559809,11.0499099 L130.450952,11.3191201 L130.414051,11.5766522 L130.675432,11.5809547 L130.787672,11.3006811 L130.85071,11.0385392 L130.592713,10.9779976 L130.559809,11.0499099 Z M131.974953,11.2515103 L131.974953,11.2515103 L131.836576,11.5695839 L131.799675,11.8089843 L132.039837,11.8765942 L132.125632,11.5628229 L132.259089,11.3191201 L131.974953,11.2515103 Z M133.379642,11.4872228 L133.379642,11.4872228 L133.250182,11.775794 L133.227119,12.0781945 L133.474354,12.1043165 L133.544773,11.8615356 L133.660703,11.5766522 L133.407933,11.4497301 L133.379642,11.4872228 Z M134.916559,11.9291455 L134.916559,11.9291455 L134.73759,12.1998922 L134.711145,12.4460536 L134.949462,12.3636925 L135.063547,12.0929457 L134.916559,11.9291455 Z M136.323093,12.3679949 L136.323093,12.3679949 L136.165035,12.6565661 L136.115834,12.925469 L136.356304,12.8686152 L136.468236,12.6178441 L136.533735,12.3679949 L136.323093,12.3679949 Z M136.059867,11.3059055 L136.059867,11.3059055 C136.059867,11.0972368 136.228073,10.9272902 136.439023,10.9272902 C136.64905,10.9272902 136.817563,11.0972368 136.817563,11.3059055 C136.817563,11.5161107 136.64905,11.6854426 136.439023,11.6854426 C136.228073,11.6854426 136.059867,11.5161107 136.059867,11.3059055 L136.059867,11.3059055 Z M134.362125,10.7186216 C134.362125,10.9272902 134.532176,11.0972368 134.740973,11.0972368 C134.949462,11.0972368 135.119821,10.9272902 135.119821,10.7186216 C135.119821,10.509031 134.949462,10.3390844 134.740973,10.3390844 C134.532176,10.3390844 134.362125,10.509031 134.362125,10.7186216 L134.362125,10.7186216 Z M132.194205,10.2315233 C132.194205,10.4417285 132.362719,10.6110605 132.572746,10.6110605 C132.783695,10.6110605 132.951901,10.4417285 132.951901,10.2315233 C132.951901,10.0228547 132.783695,9.85290807 132.572746,9.85290807 C132.362719,9.85290807 132.194205,10.0228547 132.194205,10.2315233 L132.194205,10.2315233 Z M129.968475,9.97122533 C129.968475,10.1805086 130.138526,10.3507625 130.347323,10.3507625 C130.556119,10.3507625 130.728015,10.1805086 130.728015,9.97122533 C130.728015,9.76163476 130.556119,9.59261011 130.347323,9.59261011 C130.138526,9.59261011 129.968475,9.76163476 129.968475,9.97122533 L129.968475,9.97122533 Z M127.600676,9.89040081 C127.600676,10.0990694 127.771035,10.269938 127.979524,10.269938 C128.190166,10.269938 128.360217,10.0990694 128.360217,9.89040081 C128.360217,9.68019561 128.190166,9.51086364 127.979524,9.51086364 C127.771035,9.51086364 127.600676,9.68019561 127.600676,9.89040081 L127.600676,9.89040081 Z M121.407499,10.4961237 C121.407499,10.7047923 121.577857,10.8747389 121.788192,10.8747389 C121.996988,10.8747389 122.167039,10.7047923 122.167039,10.4961237 C122.167039,10.2865331 121.996988,10.1165865 121.788192,10.1165865 C121.577857,10.1165865 121.407499,10.2865331 121.407499,10.4961237 L121.407499,10.4961237 Z M119.472976,10.9414268 C119.472976,11.1350369 119.630727,11.2917689 119.825686,11.2917689 C120.018493,11.2917689 120.174706,11.1350369 120.174706,10.9414268 C120.174706,10.7475095 120.018493,10.5898556 119.825686,10.5898556 C119.630727,10.5898556 119.472976,10.7475095 119.472976,10.9414268 L119.472976,10.9414268 Z M119.539705,9.05449707 L119.539705,9.05449707 L119.890262,8.9500091 L120.753433,8.76070149 L121.691635,8.55203287 L122.745766,8.36272526 L123.552663,8.2391836 L124.443509,8.12609074 L125.496103,8.02098814 L126.785169,7.94569534 L127.981369,7.91742212 L129.044111,7.94569534 L130.126225,8.02098814 L131.045669,8.10703705 L131.832886,8.19216402 L132.837816,8.35319841 L133.967594,8.58983293 L134.877506,8.80833571 L136.138589,9.19709241 L137.03005,9.47152699 L137.429808,9.60490281 L137.65767,9.86059101 L137.684116,10.315421 L137.39998,10.7038704 L136.898437,10.7521192 L136.214236,10.5339238 L135.512814,10.2865331 L134.498965,10.0025717 L133.113342,9.67066876 L131.690818,9.45308794 L130.229855,9.30065843 L129.375603,9.25425348 L127.888194,9.21553147 L126.615118,9.24380468 L125.080354,9.33938044 L123.836491,9.44356109 L122.507141,9.65130776 L121.504056,9.83262511 L120.48867,10.0972255 L119.909635,10.2201525 L119.444993,10.3436942 L119.171313,10.3627479 L118.762637,10.2680941 L118.562758,9.91775208 L118.610114,9.59506865 L118.818603,9.28221938 L119.255569,9.13071182 L119.539705,9.05449707 Z M125.557297,9.93065941 L125.557297,9.93065941 C125.557297,9.72106884 125.727655,9.55204419 125.936144,9.55204419 C126.146786,9.55204419 126.316837,9.72106884 126.316837,9.93065941 C126.316837,10.139328 126.146786,10.3101966 125.936144,10.3101966 C125.727655,10.3101966 125.557297,10.139328 125.557297,9.93065941 L125.557297,9.93065941 Z M123.371849,10.1534646 L123.371849,10.1534646 C123.371849,9.94387407 123.542208,9.77484941 123.752542,9.77484941 C123.963184,9.77484941 124.13139,9.94387407 124.13139,10.1534646 C124.13139,10.3636698 123.963184,10.5330018 123.752542,10.5330018 C123.542208,10.5330018 123.371849,10.3636698 123.371849,10.1534646 L123.371849,10.1534646 Z M121.012968,3.37434673 L121.012968,3.37434673 C121.012968,2.75264332 121.518201,2.24864254 122.139056,2.24864254 C122.759604,2.24864254 123.263299,2.75264332 123.263299,3.37434673 C123.263299,3.77724005 123.05112,4.13065523 122.731928,4.32948969 L123.249154,5.38666207 L123.572036,5.70903819 L123.931511,5.71764308 L124.320814,5.59502337 L124.585577,5.33902785 L124.806674,3.51878598 C124.198119,3.44164928 123.729786,2.92289725 123.729786,2.2935109 C123.729786,1.61157325 124.282375,1.05778702 124.966269,1.05778702 C125.648318,1.05778702 126.200907,1.61157325 126.200907,2.2935109 C126.200907,2.78521898 125.913389,3.21023916 125.49764,3.40907362 L125.913389,4.75112937 L126.093895,5.08333965 C126.322065,5.30153511 126.388794,5.34794006 126.427232,5.35838886 L126.778097,5.39526696 L127.090523,5.24437405 L127.279639,4.95949067 L127.712916,2.85528739 C127.084988,2.69486762 126.623728,2.12694479 126.623728,1.45115349 C126.623728,0.64936199 127.274412,-1.24344979e-14 128.076081,-1.24344979e-14 C128.877442,-1.24344979e-14 129.528126,0.64936199 129.528126,1.45115349 C129.528126,2.11034964 129.086547,2.66690173 128.484757,2.84299468 L128.835314,4.6466414 L128.997062,5.03601274 L129.214469,5.27264726 L129.471852,5.35838886 L129.71755,5.32950101 L129.954329,5.16815929 L130.173581,4.80798312 L130.548739,3.52062989 C130.156054,3.31380518 129.889446,2.9010777 129.889446,2.42688672 C129.889446,1.74494907 130.442034,1.19085552 131.124391,1.19085552 C131.808285,1.19085552 132.360874,1.74494907 132.360874,2.42688672 C132.360874,3.02984376 131.929443,3.53200064 131.357481,3.64048374 L131.348871,4.98776389 L131.378699,5.2628131 L131.473103,5.59502337 L131.795985,5.80277004 L132.127477,5.84149205 L132.410075,5.74591629 L132.725576,5.41432065 L133.171153,4.33102628 C132.869489,4.12881133 132.671455,3.7852303 132.671455,3.39616628 C132.671455,2.77477019 133.176381,2.27169135 133.797543,2.27169135 C134.419936,2.27169135 134.923324,2.77477019 134.923324,3.39616628 C134.923324,3.97115742 134.490048,4.44534841 133.935921,4.51265095 L133.958369,5.81321884 L134.034016,6.12514615 L134.346442,6.41986369 L134.811084,6.55231755 L135.189932,6.50468333 L135.503896,6.22963412 L136.147814,5.38819866 C135.845843,5.18659835 135.649347,4.84301732 135.649347,4.4539533 C135.649347,3.83255721 136.152734,3.32947837 136.773897,3.32947837 C137.39629,3.32947837 137.899678,3.83255721 137.899678,4.4539533 C137.899678,5.04553959 137.443646,5.53017937 136.863074,5.57566237 L136.745914,6.00283377 L136.68103,6.30584887 L136.642284,6.58089808 L136.736996,6.89313272 L136.982386,7.07352812 L137.296658,7.18662098 L137.705026,7.11225013 L138.168131,6.77911791 L138.608172,6.16479012 C138.455649,5.98162886 138.36432,5.74591629 138.36432,5.48992077 C138.36432,4.90540278 138.839725,4.43213375 139.423987,4.43213375 C140.007941,4.43213375 140.483346,4.90540278 140.483346,5.48992077 C140.483346,6.07443876 140.007941,6.54862974 139.423987,6.54862974 C139.306519,6.54862974 139.190589,6.5286541 139.083577,6.49239063 L138.643536,7.33935781 L138.434739,7.81231952 L138.120775,8.49610108 L137.931351,8.93157005 L137.808656,9.22536563 L137.49623,9.37687318 L137.124454,9.23489247 L136.480844,8.97889695 L135.779114,8.70384774 L135.058319,8.48565228 L134.441154,8.2865105 L133.844592,8.1165639 L133.227119,7.98411003 L132.441441,7.84120737 L131.42421,7.69830471 L130.429734,7.62331922 L129.394975,7.55724595 L128.153265,7.5283581 L126.625573,7.57599232 L125.411846,7.67033881 L124.320814,7.78435362 L123.219326,7.92725628 L122.0548,8.14452979 L120.925329,8.38116431 L120.013265,8.59935977 L118.971434,8.88455046 L118.582131,8.89315535 L118.241721,8.2391836 L117.32074,6.33473672 L117.082422,6.34795138 C116.484322,6.34795138 116,5.8651555 116,5.2680375 C116,4.67122681 116.484322,4.18750898 117.082422,4.18750898 C117.678677,4.18750898 118.162999,4.67122681 118.162999,5.2680375 C118.162999,5.54431598 118.059062,5.79570174 117.889011,5.98746789 L118.194365,6.33473672 L118.648552,6.67493726 L118.980044,6.96934747 L119.294008,7.04464027 L119.6255,6.84672777 L119.767567,6.49515649 L119.681773,5.24375941 C119.118729,5.20595935 118.673152,4.73791472 118.673152,4.16568943 C118.673152,3.5698007 119.157167,3.0848536 119.753422,3.0848536 C120.351829,3.0848536 120.835844,3.5698007 120.835844,4.16568943 C120.835844,4.5486071 120.635658,4.88327592 120.337684,5.07534939 L120.886583,5.9840874 L121.151346,6.25852197 L121.417954,6.35317578 L121.674107,6.28648787 L121.901969,5.9929996 L121.901969,4.47423626 C121.393353,4.36544584 121.012968,3.91399636 121.012968,3.37434673 L121.012968,3.37434673 Z M116.991093,5.61192584 L116.991093,5.61192584 C116.869935,5.38481817 116.894536,5.22532036 116.861325,4.98868584 L116.5858,4.79907091 L116.470177,5.13589095 L116.564889,5.51450617 L116.824424,5.76865779 L116.991093,5.61192584 Z M120.672559,7.54003617 L120.672559,7.54003617 L120.50958,7.82983662 L120.330612,8.09474435 L121.279576,8.1113395 L121.149808,7.83874883 L120.842917,7.62485581 L120.672559,7.54003617 Z M122.877379,6.97549382 L122.877379,6.97549382 L122.745766,7.29448944 L122.566798,7.62331922 L122.966863,7.76069017 L123.428123,7.68170956 C123.640302,7.65374366 123.67874,7.62331922 123.67874,7.62331922 L123.463178,7.3777725 L123.191343,7.18662098 L122.917662,6.93523522 L122.877379,6.97549382 Z M125.718737,6.5584639 L125.718737,6.5584639 L125.522241,6.82122041 L125.369718,7.11132818 C125.213504,7.31907485 125.185521,7.3531871 125.188904,7.36701639 L125.480112,7.42233354 L125.781776,7.3777725 L126.09943,7.34366025 L126.348203,7.29080163 C126.169542,7.10087938 126.08344,7.03849392 126.07114,7.01851828 L125.867878,6.72748856 L125.718737,6.5584639 Z M128.191703,6.14020471 L128.191703,6.14020471 L127.949696,6.27511712 L127.884812,6.53449313 L127.797173,6.81415211 L127.569003,7.11747453 L127.821773,7.31538704 L128.244287,7.30831873 L128.582851,7.30831873 C128.810713,7.21550883 128.828549,7.22503568 128.814403,7.19123074 L128.610834,6.84826436 L128.365444,6.46196619 L128.240904,6.21549751 L128.191703,6.14020471 Z M130.513991,6.60640544 L130.513991,6.60640544 L130.268293,6.83074725 L130.009066,7.08336228 C129.835017,7.28742114 129.838707,7.31108459 129.856542,7.32952364 L130.161589,7.3777725 L130.429734,7.3777725 L130.748926,7.41188475 C130.94204,7.40942621 130.977095,7.40942621 130.987243,7.3952896 L130.901449,7.11747453 L130.704952,6.77665937 L130.513991,6.60640544 Z M135.619826,7.65036317 L135.619826,7.65036317 L135.374128,7.88361719 L135.037101,8.08060774 C135.10383,8.31386177 135.156721,8.31386177 135.18655,8.31816421 C135.333845,8.33813985 135.374128,8.32953496 135.442395,8.35842281 L135.776039,8.47766202 L136.018047,8.55664263 L136.021122,8.26469096 L135.902117,7.97366124 L135.824933,7.68263151 L135.619826,7.65036317 Z M137.74531,8.53881822 L137.74531,8.53881822 L137.449181,8.72474534 L137.187493,8.87195044 L137.477164,9.10520447 L137.719172,8.76930638 L137.827721,8.52222307 L137.74531,8.53881822 Z M118.638097,8.09474435 L118.638097,8.09474435 L118.638097,8.43648147 L118.971434,8.65129644 L118.918543,8.41005216 L118.638097,8.09474435 Z M132.980192,6.96934747 L132.980192,6.96934747 C132.917153,7.05693297 132.397467,7.57660696 132.499252,7.68539737 C132.774777,7.77636337 133.144708,7.78619753 133.435916,7.83413907 C133.561994,7.80801707 133.337822,7.5984265 133.325521,7.57752891 C133.225274,7.39344569 133.24311,7.14359652 133.13948,6.95613282 L132.980192,6.96934747 Z M139.316974,5.75882363 L139.316974,5.75882363 C139.194279,5.53110132 139.21888,5.37160351 139.188744,5.134969 L138.911989,4.94566138 L138.796059,5.2821741 L138.892308,5.66078933 L139.148461,5.9158629 L139.316974,5.75882363 Z M119.659018,4.51787535 L119.659018,4.51787535 C119.588599,4.37958245 119.511415,4.22008464 119.497577,4.06058683 C119.483432,3.90539147 119.515105,3.64663009 119.515105,3.64663009 L119.27648,3.56703484 L119.104584,3.84054746 L119.095974,4.08394296 L119.185458,4.39955809 L119.38872,4.66262192 L119.659018,4.51787535 Z M122.047727,3.8955573 L122.047727,3.8955573 C121.991761,3.73882535 121.95117,3.56334703 121.953015,3.39432238 L121.958243,2.66444319 L121.698707,2.64170169 L121.496983,2.91736553 L121.432099,3.22253186 L121.474228,3.64232764 C121.577857,3.8832646 121.547722,3.85437675 121.595078,3.92290857 L121.863531,4.07533807 L122.047727,3.8955573 Z M124.792836,2.92812165 L124.792836,2.92812165 C124.792836,2.92812165 124.722417,2.73697013 124.685516,2.56978938 C124.664606,2.2689255 124.764545,1.76431007 124.764545,1.76431007 L124.468109,1.61433911 L124.192891,1.94132498 L124.136617,2.25755475 L124.198119,2.68779932 C124.312203,2.93242409 124.278685,2.90353624 124.329731,2.97022415 L124.610177,3.11835121 L124.792836,2.92812165 Z M127.997052,2.10604719 L127.997052,2.10604719 C127.923558,1.83591506 127.860519,1.5301341 127.872512,1.24279219 C127.881429,1.01937232 127.954923,0.676405935 127.954923,0.676405935 L127.676323,0.508917868 L127.426935,0.537191083 L127.148334,0.89306481 L127.06746,1.28305078 L127.095443,1.53812435 L127.151717,1.81071502 C127.314695,2.11219354 127.269184,2.07623739 127.341141,2.15952045 L127.600676,2.33837926 L127.997052,2.10604719 Z M130.95434,3.01755105 L130.95434,3.01755105 C130.95434,3.01755105 130.882076,2.82639954 130.847328,2.65983342 C130.82611,2.36019881 130.924204,1.85466143 130.924204,1.85466143 L130.627768,1.70561242 L130.354395,2.03229098 L130.298122,2.34882806 L130.357778,2.77815068 C130.471863,3.0218535 130.440189,2.9938876 130.491235,3.06119015 L130.771681,3.20870257 L130.95434,3.01755105 Z M133.788626,3.99113306 L133.788626,3.99113306 C133.736042,3.83440111 133.695451,3.65892279 133.695451,3.4892835 L133.700679,2.75878968 L133.441451,2.73697013 L133.239419,3.0114047 L133.174536,3.31810762 L133.218509,3.7379034 C133.319986,3.97914768 133.290466,3.94995251 133.337822,4.01725506 L133.604429,4.16999188 L133.788626,3.99113306 Z M136.675495,4.85899783 C136.605384,4.72039762 136.5282,4.56089981 136.512209,4.40232395 C136.500217,4.24528468 136.53189,3.98867452 136.53189,3.98867452 L136.292957,3.90692805 L136.121369,4.18136263 L136.112451,4.4259874 L136.201935,4.74160253 L136.405197,5.00343708 L136.675495,4.85899783 Z" id="Fill-1"></path>
            </g>
        </g>
    </g>
</svg>